<?xml version="1.0" encoding="UTF-8" standalone="no"?>
<!-- Created with Inkscape (http://www.inkscape.org/) -->

<svg
   width="16.0px"
   height="16.0px"
   viewBox="0 0 16.0 16.0"
   version="1.1"
   id="SVGRoot"
   sodipodi:docname="black.svg"
   inkscape:version="1.2.2 (b0a8486541, 2022-12-01)"
   xmlns:inkscape="http://www.inkscape.org/namespaces/inkscape"
   xmlns:sodipodi="http://sodipodi.sourceforge.net/DTD/sodipodi-0.dtd"
   xmlns:xlink="http://www.w3.org/1999/xlink"
   xmlns="http://www.w3.org/2000/svg"
   xmlns:svg="http://www.w3.org/2000/svg">
  <sodipodi:namedview
     id="namedview261"
     pagecolor="#ffffff"
     bordercolor="#000000"
     borderopacity="0.25"
     inkscape:showpageshadow="2"
     inkscape:pageopacity="0.0"
     inkscape:pagecheckerboard="0"
     inkscape:deskcolor="#d1d1d1"
     inkscape:document-units="px"
     showgrid="false"
     inkscape:zoom="22.627417"
     inkscape:cx="3.2924659"
     inkscape:cy="4.331029"
     inkscape:window-width="1920"
     inkscape:window-height="1007"
     inkscape:window-x="0"
     inkscape:window-y="0"
     inkscape:window-maximized="1"
     inkscape:current-layer="layer1"
     showguides="false">
    <inkscape:grid
       type="xygrid"
       id="grid384" />
  </sodipodi:namedview>
  <defs
     id="defs256">
    <linearGradient
       inkscape:collect="always"
       id="linearGradient6374">
      <stop
         style="stop-color:#806000;stop-opacity:1;"
         offset="0"
         id="stop6366" />
      <stop
         style="stop-color:#ffd965;stop-opacity:1;"
         offset="0.32553524"
         id="stop6368" />
      <stop
         style="stop-color:#806000;stop-opacity:1;"
         offset="0.6812312"
         id="stop6370" />
      <stop
         style="stop-color:#ffd965;stop-opacity:1;"
         offset="1"
         id="stop6372" />
    </linearGradient>
    <linearGradient
       inkscape:collect="always"
       id="linearGradient6210">
      <stop
         style="stop-color:#3f3f3f;stop-opacity:1;"
         offset="0.68249089"
         id="stop6206" />
      <stop
         style="stop-color:#252525;stop-opacity:1;"
         offset="1"
         id="stop6208" />
    </linearGradient>
    <linearGradient
       inkscape:collect="always"
       id="linearGradient6198">
      <stop
         style="stop-color:#404040;stop-opacity:1;"
         offset="0"
         id="stop6194" />
      <stop
         style="stop-color:#b2b2b2;stop-opacity:1;"
         offset="0.32553524"
         id="stop6202" />
      <stop
         style="stop-color:#404040;stop-opacity:1;"
         offset="0.6812312"
         id="stop6204" />
      <stop
         style="stop-color:#b2b2b2;stop-opacity:1;"
         offset="1"
         id="stop6196" />
    </linearGradient>
    <pattern
       patternUnits="userSpaceOnUse"
       width="12"
       height="12"
       patternTransform="translate(2,2)"
       id="pattern1112">
      <circle
         style="fill:#c22222;fill-opacity:1;fill-rule:evenodd;stroke-width:0.496673;paint-order:stroke markers fill"
         id="circle1103"
         cx="6"
         cy="6"
         r="6" />
    </pattern>
    <linearGradient
       inkscape:collect="always"
       xlink:href="#linearGradient6198"
       id="linearGradient6200"
       x1="-9.5749972"
       y1="1.2601398"
       x2="12.037639"
       y2="1.2601398"
       gradientUnits="userSpaceOnUse" />
    <radialGradient
       inkscape:collect="always"
       xlink:href="#linearGradient6210"
       id="radialGradient6212"
       cx="8"
       cy="8"
       fx="8"
       fy="8"
       r="4"
       gradientUnits="userSpaceOnUse" />
    <radialGradient
       inkscape:collect="always"
       xlink:href="#linearGradient6210"
       id="radialGradient6220"
       cx="8"
       cy="8"
       fx="8"
       fy="8"
       r="5"
       gradientUnits="userSpaceOnUse" />
    <linearGradient
       inkscape:collect="always"
       xlink:href="#linearGradient6374"
       id="linearGradient6364"
       x1="-8.9249964"
       y1="0.10537757"
       x2="7.0830646"
       y2="0.10537757"
       gradientUnits="userSpaceOnUse" />
  </defs>
  <g
     inkscape:label="Layer 1"
     inkscape:groupmode="layer"
     id="layer1">
    <circle
       style="fill:#ffffff;fill-opacity:1;fill-rule:evenodd;stroke-width:2.78335;paint-order:stroke markers fill"
       id="path258"
       cx="8"
       cy="8"
       r="6.5" />
    <g
       id="g6477"
       inkscape:label="black">
      <path
         sodipodi:type="star"
         style="display:inline;fill:#262626;fill-opacity:1;fill-rule:evenodd;stroke-width:0.5;paint-order:stroke markers fill"
         id="path5713"
         inkscape:flatsided="false"
         sodipodi:sides="180"
         sodipodi:cx="1.2313213"
         sodipodi:cy="1.2601414"
         sodipodi:r1="10.807414"
         sodipodi:r2="10.483192"
         sodipodi:arg1="1.1027689"
         sodipodi:arg2="1.1202222"
         inkscape:rounded="-3.469447e-18"
         inkscape:randomized="0"
         d="M 6.1068346,10.905325 5.7965675,10.697082 5.7672525,11.069602 5.464442,10.850658 5.4221441,11.221929 5.1271591,10.99255 5.0719298,11.362118 4.7851297,11.122584 4.7170363,11.489999 4.4387705,11.240602 4.357896,11.605417 4.0885036,11.34646 3.9949465,11.708231 3.7347556,11.44003 3.6286299,11.798315 3.3779576,11.521198 3.2593926,11.875561 3.0185442,11.589863 2.8876843,11.939873 2.6569534,11.645944 2.5139581,11.991173 2.2936256,11.689371 2.1386691,12.029399 1.9290036,11.720092 1.7622747,12.054505 1.5635316,11.738069 1.3852334,12.066459 1.1976548,11.74328 1.0080046,12.065248 0.8318191,11.735719 0.63104783,12.050872 0.46647009,11.715395 l -0.21164766,0.307954 -0.1527695,-0.341016 -0.22226619,0.30038 -0.14077513,-0.34614 -0.23261392,0.292441 -0.12860925,-0.350843 -0.24267825,0.284145 -0.11628668,-0.355118 -0.25244691,0.275502 -0.1038224,-0.358959 -0.261908,0.266524 -0.091232,-0.362364 -0.27105,0.257221 -0.07853,-0.365327 -0.2798618,0.247605 -0.065732,-0.367845 -0.2883326,0.237686 -0.052855,-0.369915 -0.296452,0.22748 -0.039913,-0.371535 -0.3042104,0.216995 -0.026922,-0.372701 -0.3115981,0.206246 -0.013898,-0.373413 -0.3186061,0.195245 -8.58e-4,-0.373671 -0.325226,0.184008 0.012183,-0.373474 -0.3314497,0.172546 0.02521,-0.3728211 -0.3372696,0.1608731 0.038206,-0.3717142 -0.3426784,0.1490041 0.051155,-0.3701539 -0.3476698,0.136954 0.064042,-0.3681431 -0.3522377,0.1247371 0.076851,-0.3656839 -0.3563764,0.1123682 0.089567,-0.362779 -0.3600809,0.099862 0.102173,-0.3594321 -0.3633467,0.087235 0.1146547,-0.3556475 -0.3661698,0.074501 0.1269968,-0.3514294 -0.3685468,0.061677 0.1391842,-0.3467831 -0.3704748,0.048777 0.151202,-0.3417145 -0.3719514,0.035818 0.1630355,-0.3362294 -0.3729748,0.022815 0.1746704,-0.3303348 -0.3735439,0.00978 0.1860925,-0.3240376 -0.3736577,-0.00326 L -8.0405459,6.151951 -8.4138624,6.1356546 -8.2056194,5.8253875 -8.5781398,5.7960726 -8.3591955,5.493262 -8.7304658,5.4509641 -8.501087,5.1559791 -8.870655,5.1007498 -8.6311211,4.8139497 -8.9985364,4.7458564 -8.7491393,4.4675906 -9.1139544,4.3867161 -8.8549978,4.1173236 -9.2167682,4.0237665 -8.9485677,3.7635756 -9.3068526,3.6574499 -9.029735,3.4067776 -9.3840979,3.2882126 -9.0984007,3.0473642 -9.4484099,2.9165044 -9.1544813,2.6857734 -9.4997104,2.5427781 -9.1979084,2.3224457 -9.5379367,2.1674891 -9.2286291,1.9578237 -9.5630423,1.7910947 -9.2466059,1.5923516 -9.5749967,1.4140534 -9.251817,1.2264749 -9.5737852,1.0368246 -9.2442561,0.86063914 -9.5594094,0.65986787 -9.2239322,0.49529012 -9.5318868,0.28364246 l 0.3410166,-0.1527695 -0.3003806,-0.22226618 0.3461404,-0.14077514 -0.2924406,-0.23261392 0.3508425,-0.12860925 -0.2841443,-0.24267824 0.3551171,-0.11628668 -0.2755019,-0.25244695 0.3589592,-0.1038224 -0.2665238,-0.261908 0.3623639,-0.091232 -0.257221,-0.27105 0.3653271,-0.07853 -0.2476048,-0.2798617 0.3678452,-0.065732 -0.237687,-0.2883325 0.3699152,-0.052855 -0.2274795,-0.2964521 0.3715344,-0.039913 -0.2169949,-0.3042104 0.372701,-0.026922 -0.2062459,-0.3115981 0.3734135,-0.013898 -0.1952456,-0.3186062 0.373671,-8.58e-4 -0.1840075,-0.325226 0.3734734,0.012183 -0.1725452,-0.3314497 0.3728207,0.02521 -0.1608726,-0.3372695 0.3717137,0.038206 -0.1490041,-0.3426785 0.3701539,0.051155 -0.136954,-0.3476699 0.3681431,0.064042 -0.1247371,-0.3522377 0.3656839,0.076851 -0.1123682,-0.3563764 0.362779,0.089567 -0.099862,-0.3600809 0.3594322,0.102173 -0.087235,-0.3633467 0.3556475,0.1146547 -0.074501,-0.3661698 0.3514294,0.1269969 -0.061677,-0.3685468 0.3467831,0.1391841 -0.048777,-0.3704747 0.3417145,0.1512019 -0.035818,-0.3719514 0.3362294,0.1630355 -0.022815,-0.3729748 0.3303348,0.1746704 -0.00978,-0.3735438 0.3240376,0.1860925 0.00326,-0.3736578 0.3173457,0.1972879 0.016296,-0.3733164 0.3102671,0.2082429 0.029315,-0.3725203 0.3028105,0.2189442 0.042298,-0.3712703 0.294985,0.2293788 0.055229,-0.3695679 0.2868001,0.2395339 0.068093,-0.3674154 0.2782659,0.2493972 0.080874,-0.3648151 0.2693925,0.2589565 0.093557,-0.3617703 0.2601909,0.2682004 0.1061257,-0.3582849 0.25067231,0.2771177 0.118565,-0.354363 0.24084837,0.2856972 0.13085987,-0.3500092 0.23073096,0.2939286 0.1429953,-0.345229 0.22033244,0.3018019 0.15495651,-0.3400283 0.20966549,0.3093076 0.16672893,-0.3344132 0.19874308,0.3164364 0.17829824,-0.3283908 0.1875785,0.3231797 0.1896503,-0.3219682 0.1761855,0.3295292 0.2007712,-0.3151534 0.1645778,0.3354772 0.2116476,-0.3079545 0.1527695,0.3410165 0.2222662,-0.3003805 0.1407752,0.3461403 0.2326139,-0.2924406 0.1286092,0.3508425 0.2426783,-0.2841443 0.1162867,0.3551172 0.2524469,-0.2755019 0.1038224,0.3589592 0.261908,-0.2665238 0.091232,0.3623638 0.27105,-0.257221 0.07853,0.3653271 0.2798618,-0.2476048 0.065732,0.3678452 0.2883326,-0.2376869 0.052855,0.3699151 0.2964521,-0.2274795 0.039912,0.3715344 0.3042104,-0.2169949 0.026922,0.372701 0.3115981,-0.2062459 0.013898,0.3734135 0.3186062,-0.1952456 8.58e-4,0.3736711 0.325226,-0.1840075 -0.012183,0.3734733 0.3314497,-0.1725451 -0.02521,0.3728206 0.3372695,-0.1608726 -0.038206,0.3717137 0.3426785,-0.1490041 -0.051155,0.370154 0.3476699,-0.1369541 -0.064042,0.3681432 0.3522377,-0.1247371 -0.076851,0.3656838 0.3563763,-0.1123682 -0.089567,0.362779 0.3600809,-0.099862 -0.102173,0.3594322 0.3633467,-0.087235 -0.1146547,0.3556474 0.3661698,-0.074501 -0.1269969,0.3514293 0.3685468,-0.061677 -0.1391841,0.3467832 0.3704747,-0.048777 -0.1512019,0.3417145 0.3719509,-0.035818 -0.163035,0.3362295 0.372975,-0.022815 -0.174671,0.3303348 0.373544,-0.00978 -0.186092,0.3240376 0.373658,0.00326 -0.197288,0.3173457 0.373316,0.016296 -0.208243,0.3102671 0.37252,0.029315 -0.218944,0.3028105 0.37127,0.042298 -0.229378,0.294985 0.369568,0.055229 -0.239534,0.2868001 0.367415,0.068093 -0.249397,0.2782658 0.364815,0.080874 -0.258957,0.2693924 0.361771,0.093557 -0.268201,0.2601909 0.358285,0.1061257 -0.277117,0.25067234 0.354363,0.11856501 -0.285698,0.24084837 0.35001,0.13085987 -0.293929,0.23073096 0.345229,0.14299529 -0.301802,0.22033245 0.340028,0.15495651 -0.309307,0.20966549 0.334413,0.16672892 -0.316436,0.19874309 0.32839,0.1782982 -0.323179,0.1875786 0.321968,0.1896502 -0.329529,0.1761855 0.315153,0.2007713 -0.335477,0.1645777 0.307954,0.2116477 -0.341016,0.1527695 0.30038,0.2222662 -0.34614,0.1407751 0.292441,0.2326139 -0.350843,0.1286093 0.284145,0.2426782 -0.355118,0.1162867 0.275502,0.2524469 -0.358959,0.1038224 0.266524,0.261908 -0.362364,0.091232 0.257221,0.27105 -0.365327,0.07853 0.247605,0.2798618 -0.367846,0.065732 0.237687,0.2883326 -0.369915,0.052855 0.22748,0.296452 -0.371535,0.039913 0.216995,0.3042104 -0.372701,0.026922 0.206246,0.3115981 -0.373413,0.013898 0.195245,0.3186061 -0.373671,8.58e-4 0.184008,0.3252261 -0.373474,-0.012183 0.172546,0.3314497 L 9.9034109,7.1501487 10.064284,7.4874183 9.6925698,7.4492123 9.8415739,7.7918907 9.47142,7.7407354 9.608374,8.0884052 9.2402308,8.0243629 9.3649679,8.3766006 8.9992841,8.2997492 9.1116523,8.6561256 8.7488733,8.5665588 8.8487357,8.9266397 8.4893035,8.8244668 8.5765384,9.1878134 8.220891,9.0731587 8.2953922,9.4393285 7.9439628,9.3123317 8.0056394,9.6808785 7.6588562,9.5416943 7.7076332,9.9121691 7.3659187,9.7609671 7.4017366,10.132919 7.0655071,9.969883 l 0.022815,0.372975 -0.3303348,-0.174671 0.00978,0.373544 -0.3240376,-0.186092 -0.00326,0.373658 -0.3173457,-0.197288 z"
         transform="matrix(0.55523074,0,0,0.55523074,7.3163328,7.3003317)" />
      <circle
         style="display:inline;fill:url(#radialGradient6220);fill-opacity:1;fill-rule:evenodd;stroke-width:0.777805;paint-order:stroke markers fill"
         id="circle6190"
         cx="8"
         cy="8"
         r="5" />
      <circle
         style="display:inline;fill:url(#radialGradient6212);fill-opacity:1;fill-rule:evenodd;stroke-width:0.622244;paint-order:stroke markers fill"
         id="circle6154"
         cx="8"
         cy="8"
         r="4" />
      <path
         id="path6024"
         style="display:inline;fill:url(#linearGradient6200);fill-opacity:1;fill-rule:evenodd;stroke-width:0.5;paint-order:stroke markers fill"
         d="m 1.0765429,-9.5461784 -0.1758841,0.3271444 -0.007035,-0.014071 0.0492476,1.5090854 a 9.0052651,9.0052651 0 0 0 -0.31307367,0.021106 L 0.52778454,-9.2119986 0.323759,-9.5074839 l -0.15477799,0.3376974 -0.010553,-0.014071 0.154778,1.5055678 A 9.0052651,9.0052651 0 0 0 1.3228734e-4,-7.6571833 L -0.20389325,-9.1346096 -0.4255072,-9.4195419 l -0.13015422,0.3482505 -0.010553,-0.014071 0.25679076,1.4879793 a 9.0052651,9.0052651 0 0 0 -0.29900294,0.066836 l -0.30955599,-1.4739086 -0.24975541,-0.2743792 -0.1055305,0.3588035 -0.00704,-0.00704 0.35880353,1.4633555 a 9.0052651,9.0052651 0 0 0 -0.30252063,0.066836 l -0.4080511,-1.4352141 -0.2638261,-0.2532731 -0.080907,0.3658389 -0.010553,-0.010553 0.4608163,1.4316965 a 9.0052651,9.0052651 0 0 0 -0.2919675,0.1090481 l -0.5135816,-1.4211434 -0.2778968,-0.232167 -0.056283,0.3693566 -0.017588,-0.014071 0.5663467,1.4105903 a 9.0052651,9.0052651 0 0 0 -0.2919676,0.1090482 l -0.6050412,-1.3718959 -0.2884499,-0.2110609 -0.031659,0.3728743 -0.021106,-0.014071 0.6578064,1.3613428 a 9.0052651,9.0052651 0 0 0 -0.2708614,0.1477427 l -0.7035364,-1.3367191 -0.3060383,-0.1899548 -0.00352,0.3728743 -0.021106,-0.010553 0.7563016,1.3191307 a 9.0052651,9.0052651 0 0 0 -0.2708615,0.1442249 l -0.7879607,-1.2698831 -0.320109,-0.1688487 0.021106,0.3728743 -0.021106,-0.010553 0.8407259,1.2558124 a 9.0052651,9.0052651 0 0 0 -0.2497554,0.1864371 l -0.8864558,-1.2311886 -0.3236267,-0.1442249 0.049248,0.3728742 -0.021106,-0.010553 0.9321856,1.1995294 a 9.0052651,9.0052651 0 0 0 -0.2497554,0.1864372 l -0.9603271,-1.1502819 -0.3376974,-0.1231189 0.073871,0.3658389 -0.024624,-0.00704 1.006057,1.1256582 a 9.0052651,9.0052651 0 0 0 -0.2180963,0.2180962 l -1.0447515,-1.0904813 -0.3447328,-0.098495 0.098495,0.3588036 -0.024624,-0.00704 1.0904813,1.0623399 a 9.0052651,9.0052651 0 0 0 -0.2180963,0.2180962 l -1.1115874,-1.0095746 -0.3517682,-0.073871 0.1231189,0.3517681 -0.024624,-0.00352 1.1537996,0.9743978 a 9.0052651,9.0052651 0 0 0 -0.1864371,0.24272 l -1.1854587,-0.9321856 -0.3588036,-0.049248 0.1512603,0.3447328 -0.024624,-0.00352 1.2276709,0.8970088 a 9.0052651,9.0052651 0 0 0 -0.1899548,0.2497554 l -1.2417417,-0.8442436 -0.3552858,-0.028142 0.1723664,0.3341798 h -0.024624 l 1.2734008,0.7985137 a 9.0052651,9.0052651 0 0 0 -0.1512603,0.2743792 l -1.3050599,-0.7598192 h -0.3552859 l 0.1934725,0.3165913 h -0.028141 l 1.3437544,0.7211247 a 9.0052651,9.0052651 0 0 0 -0.1477427,0.2708615 l -1.3507897,-0.6648418 -0.3552859,0.028142 0.2145786,0.3025206 -0.021106,0.00352 1.3683782,0.6155943 a 9.0052651,9.0052651 0 0 0 -0.1090482,0.2919675 l -1.3965196,-0.5698644 -0.3552858,0.049248 0.2392023,0.2884499 -0.028141,0.00352 1.4316964,0.5241346 a 9.0052651,9.0052651 0 0 0 -0.1090481,0.2919676 l -1.4316965,-0.4713694 -0.3482504,0.073871 0.2567907,0.2708615 -0.031659,0.00704 1.4492848,0.4221218 a 9.0052651,9.0052651 0 0 0 -0.063318,0.29900294 L -8.9488564,-1.30426 l -0.3412151,0.098495 0.2743792,0.25327313 -0.028142,0.010553 1.491497,0.32010904 a 9.0052651,9.0052651 0 0 0 -0.063318,0.30252062 l -1.4879794,-0.26734381 -0.3341797,0.12311886 0.2919675,0.23216699 -0.024624,0.0105531 1.4879793,0.21457858 a 9.0052651,9.0052651 0 0 0 -0.024624,0.30603831 l -1.50205,-0.16181336 -0.3236268,0.14422495 0.309556,0.21457858 -0.024624,0.010553 1.5196384,0.10904814 A 9.0052651,9.0052651 0 0 0 -7.749328,0.9294678 l -1.5126032,-0.0598006 -0.3130736,0.1688488 0.3236267,0.1864371 -0.031659,0.017588 1.5090855,0.00352 a 9.0052651,9.0052651 0 0 0 0,0.014071 9.0052651,9.0052651 0 0 0 0.021106,0.2954853 l -1.5126031,0.04573 -0.299003,0.1899548 0.3341798,0.1653311 -0.031659,0.021106 1.5301916,-0.1020128 a 9.0052651,9.0052651 0 0 0 0.024624,0.3060383 l -1.5055677,0.1512603 -0.2884499,0.2110609 0.3482505,0.1407073 -0.028142,0.021106 1.4950147,-0.2040256 a 9.0052651,9.0052651 0 0 0 0.059801,0.3025207 l -1.491497,0.2567907 -0.2673438,0.2286493 0.3552858,0.1160835 -0.024624,0.024624 1.4985323,-0.3130737 a 9.0052651,9.0052651 0 0 0 0.063318,0.299003 l -1.4668732,0.3588035 -0.2567908,0.2497554 0.3623212,0.09146 -0.021106,0.024624 1.4528026,-0.4115688 a 9.0052651,9.0052651 0 0 0 0.098495,0.2884499 l -1.4352141,0.4608163 -0.2392023,0.2673438 0.3658389,0.066836 -0.024624,0.028141 1.4422495,-0.5206168 a 9.0052651,9.0052651 0 0 0 0.1090481,0.2884499 l -1.403555,0.5593113 -0.2216139,0.2814146 0.3728742,0.042212 -0.021106,0.028141 1.3824489,-0.6120766 a 9.0052651,9.0052651 0 0 0 0.1371896,0.2778969 l -1.3578251,0.6542887 -0.1969902,0.2954853 0.3728743,0.017588 -0.014071,0.024624 1.3472721,-0.7105717 a 9.0052651,9.0052651 0 0 0 0.1477427,0.2673438 l -1.3120953,0.7527839 -0.1794018,0.309556 0.376392,-0.010553 -0.014071,0.028142 1.2839539,-0.7985138 a 9.0052651,9.0052651 0 0 0 0.1688487,0.2567908 l -1.248777,0.8372082 -0.154778,0.3201091 0.3693566,-0.035177 -0.014071,0.028141 1.238224,-0.8934911 a 9.0052651,9.0052651 0 0 0 0.1864371,0.24272 l -1.1924941,0.9251503 -0.1371896,0.3376974 0.3693566,-0.063318 -0.010553,0.024624 1.1608349,-0.9673624 a 9.0052651,9.0052651 0 0 0 0.2040256,0.2356846 l -1.1186228,0.9990216 -0.1125658,0.3412151 0.3658389,-0.087942 -0.00704,0.024624 1.0975167,-1.0517868 A 9.0052651,9.0052651 0 0 0 -5.02313,7.7080428 l -1.0553045,1.083446 -0.087942,0.3482505 0.3588035,-0.1125659 -0.00704,0.028142 1.01661,-1.1221405 a 9.0052651,9.0052651 0 0 0 0.2286493,0.2040256 l -0.9673625,1.1432465 -0.059801,0.3552859 0.3482505,-0.1371896 -0.00352,0.028141 0.9392211,-1.1960117 a 9.0052651,9.0052651 0 0 0 0.2462377,0.1829194 l -0.8899735,1.2136002 -0.038695,0.3658388 0.3376974,-0.1618133 -0.00352,0.024624 0.8477613,-1.248777 a 9.0052651,9.0052651 0 0 0 0.2567907,0.1758841 l -0.794996,1.2628482 -0.014071,0.358803 0.3271444,-0.182919 v 0.02111 L -3.278347,9.0342162 a 9.0052651,9.0052651 0 0 0 0.2708615,0.1477426 l -0.7140894,1.3332012 0.014071,0.358804 0.3130737,-0.207543 0.00352,0.02814 0.6683595,-1.3578252 a 9.0052651,9.0052651 0 0 0 0.2708615,0.1371896 l -0.6120767,1.3578256 0.038695,0.362321 0.299003,-0.225132 0.00352,0.02462 0.5733821,-1.4070728 a 9.0052651,9.0052651 0 0 0 0.2849322,0.1055305 l -0.5206169,1.4141083 0.063318,0.362321 0.2814145,-0.249755 0.00704,0.02814 0.4713693,-1.4422495 a 9.0052651,9.0052651 0 0 0 0.2919676,0.1020128 l -0.4186041,1.4352137 0.087942,0.348251 0.2638262,-0.267344 0.00704,0.02462 0.37287427,-1.4703911 a 9.0052651,9.0052651 0 0 0 0.29900294,0.063318 l -0.32010903,1.473909 0.11256582,0.34825 0.24272003,-0.284932 0.007035,0.02111 0.26734381,-1.491497 a 9.0052651,9.0052651 0 0 0 0.29900294,0.06684 l -0.2110609,1.466873 0.14070727,0.341215 0.22161395,-0.299002 0.010553,0.02111 0.16181336,-1.505568 a 9.0052651,9.0052651 0 0 0 0.30252062,0.02111 l -0.10904813,1.495015 0.16181336,0.337697 0.20050785,-0.316591 0.0105531,0.02111 0.0562829,-1.516121 a 9.0052651,9.0052651 0 0 0 0.30955604,0.02111 l -0.00704,1.487979 0.1864372,0.316592 0.1758841,-0.327145 0.010553,0.01759 -0.049247,-1.512603 a 9.0052651,9.0052651 0 0 0 0.3095559,-0.02111 l 0.098495,1.505567 0.2075432,0.299003 0.154778,-0.337697 0.010553,0.01407 -0.154778,-1.505568 a 9.0052651,9.0052651 0 0 0 0.309556,-0.02111 l 0.2005078,1.473908 0.2286493,0.28845 0.1301543,-0.34825 0.014071,0.01407 -0.2567908,-1.48798 a 9.0052651,9.0052651 0 0 0 0.2954853,-0.06684 l 0.3060383,1.470391 0.00352,0.0035 0.2497554,0.274379 0.1055304,-0.358804 0.00704,0.01055 L 3.3806414,9.983969 A 9.0052651,9.0052651 0 0 0 3.6866797,9.917133 l 0.4045334,1.431697 0.2673437,0.256791 0.080907,-0.365839 0.00704,0.007 L 3.9856656,9.8186592 A 9.0052651,9.0052651 0 0 0 4.2811509,9.7096111 l 0.5100638,1.4176259 0.2814146,0.235684 0.056283,-0.369356 0.010553,0.007 L 4.5766361,9.5970453 A 9.0052651,9.0052651 0 0 0 4.865086,9.4915148 l 0.5980059,1.3578252 0.00352,0.0035 0.299003,0.218096 0.031659,-0.372874 0.017588,0.01055 -0.6578065,-1.3578254 a 9.0052651,9.0052651 0 0 0 0.2673438,-0.144225 l 0.7000187,1.3261664 0.3165913,0.19699 0.00352,-0.372874 0.014071,0.01055 L 5.705812,9.0518046 A 9.0052651,9.0052651 0 0 0 5.9766735,8.904062 l 0.7809253,1.262848 0.3306621,0.175884 -0.021106,-0.3728745 0.010553,0.00352 L 6.2440173,8.7281779 A 9.0052651,9.0052651 0 0 0 6.490255,8.5452585 L 7.3696754,9.765894 7.7073728,9.9136366 7.6581253,9.5407624 7.672196,9.5442801 6.7470457,8.351786 A 9.0052651,9.0052651 0 0 0 6.9897658,8.1688665 L 7.9430575,9.3121131 8.2948257,9.4387496 8.2209544,9.0729107 8.2315074,9.0764284 7.2324858,7.9613233 A 9.0052651,9.0052651 0 0 0 7.4470644,7.7467447 l 1.0412338,1.083446 v -0.00704 L 8.8471017,8.9251681 8.7486066,8.5663645 8.766195,8.5698822 7.6792314,7.5145777 A 9.0052651,9.0052651 0 0 0 7.8973276,7.2964815 L 8.998362,8.2990207 9.3642009,8.3764097 9.241082,8.0246416 9.2586705,8.0281592 8.1119062,7.0572791 a 9.0052651,9.0052651 0 0 0 0.1829195,-0.24272 l 1.1749057,0.9251503 h 0.00352 L 9.8426056,7.7924746 9.6913453,7.4477418 h 0.010553 L 8.4847805,6.5577683 A 9.0052651,9.0052651 0 0 0 8.6712176,6.3115306 L 9.9024062,7.1487388 10.27528,7.1768803 10.102914,6.8427005 h 0.01407 L 8.8541371,6.0477045 A 9.0052651,9.0052651 0 0 0 9.0018797,5.776843 l 1.2909893,0.7527839 h 0.372874 L 10.472271,6.2130355 h 0.01759 L 9.15314,5.4954284 A 9.0052651,9.0052651 0 0 0 9.3008826,5.2280846 L 10.637602,5.8858911 11.010476,5.8577497 10.795897,5.555229 h 0.01055 L 9.4451076,4.9431524 A 9.0052651,9.0052651 0 0 0 9.5541557,4.6511848 l 1.3859663,0.5663468 0.369357,-0.052765 -0.239202,-0.2884499 h 0.01055 L 9.6632039,4.3556996 A 9.0052651,9.0052651 0 0 0 9.772252,4.063732 l 1.417626,0.4678517 0.365839,-0.077389 -0.256791,-0.2708615 0.01407,-0.00352 -1.4352146,-0.4150864 a 9.0052651,9.0052651 0 0 0 0.066836,-0.3025207 l 1.4528026,0.3693566 -0.0035,-0.00352 0.358804,-0.1020127 -0.274379,-0.2532731 0.01055,-0.00352 -1.477427,-0.320109 a 9.0052651,9.0052651 0 0 0 0.06684,-0.299003 l 1.473909,0.2673438 -0.0035,-0.00352 0.351768,-0.1301542 -0.291967,-0.232167 0.0035,-0.00352 -1.466873,-0.2110609 a 9.0052651,9.0052651 0 0 0 0.02111,-0.309556 l 1.48798,0.1618133 0.341215,-0.1512603 -0.309556,-0.2145786 0.007,-0.00352 -1.50205,-0.1090481 a 9.0052651,9.0052651 0 0 0 0.02111,-0.3060383 l 1.495015,0.056283 0.330662,-0.1794018 -0.323627,-0.1864371 0.007,-0.00352 -1.48798,-0.00352 a 9.0052651,9.0052651 0 0 0 0.0035,-0.028141 9.0052651,9.0052651 0 0 0 -0.007,-0.28493221 l 1.480944,-0.0457299 0.316591,-0.20050786 -0.33418,-0.16533104 0.007,-0.003518 -1.484462,0.0984951 a 9.0052651,9.0052651 0 0 0 -0.02462,-0.30603831 l 1.477426,-0.15126031 -0.007,-0.003518 0.302521,-0.22161395 -0.348251,-0.14070727 0.0035,-0.003518 -1.466873,0.20050786 A 9.0052651,9.0052651 0 0 0 10.10287,-0.2735885 l 1.459838,-0.25327308 0.284932,-0.24272003 -0.355286,-0.1160835 0.0035,-0.003518 -1.452803,0.30603831 A 9.0052651,9.0052651 0 0 0 9.976216,-0.88566543 l 1.44225,-0.35528587 -0.007,-0.00352 0.267343,-0.2603085 -0.362321,-0.09146 -1.4246613,0.4045334 a 9.0052651,9.0052651 0 0 0 -0.087942,-0.299003 l 1.4176263,-0.4537809 -0.01055,-0.00352 0.249755,-0.2778968 -0.365839,-0.066836 0.007,-0.00704 -1.4000381,0.5065462 A 9.0052651,9.0052651 0 0 0 9.5893325,-2.0851756 l 1.3824485,-0.552276 h -0.007 l 0.228649,-0.2919676 -0.372874,-0.042212 0.0035,-0.00704 -1.3578253,0.6015236 A 9.0052651,9.0052651 0 0 0 9.3360595,-2.6620754 l 1.3332015,-0.6437357 0.207543,-0.309556 -0.372874,-0.017588 -1.3085778,0.6894656 A 9.0052651,9.0052651 0 0 0 9.0440919,-3.2178691 l 1.2839541,-0.7351954 0.186437,-0.3236268 -0.376392,0.010553 0.0035,-0.00704 -1.2628482,0.784443 a 9.0052651,9.0052651 0 0 0 -0.165331,-0.2638261 l 1.2276709,-0.8231375 0.1618133,-0.3341798 -0.3693565,0.035177 0.00352,-0.010553 -1.2065648,0.8723851 A 9.0052651,9.0052651 0 0 0 8.3440732,-4.2591028 l 1.1678703,-0.9075619 0.1407073,-0.3482505 -0.3693566,0.063318 0.00352,-0.00704 -1.1397289,0.9532917 A 9.0052651,9.0052651 0 0 0 7.9430575,-4.7445429 l 1.1010344,-0.9849509 0.1160835,-0.3552858 -0.3658389,0.087942 0.00352,-0.010553 -1.072893,1.0306807 A 9.0052651,9.0052651 0 0 0 7.5033473,-5.1948062 L 8.5375457,-6.257146 v -0.00352 l 0.09146,-0.3588036 -0.3588035,0.1125659 0.00352,-0.014071 -0.9990216,1.1045521 A 9.0052651,9.0052651 0 0 0 7.0390133,-5.6204457 l 0.9568094,-1.1291758 v -0.00352 l 0.063318,-0.3623212 -0.3482505,0.1371896 0.00352,-0.014071 -0.9216326,1.171388 A 9.0052651,9.0052651 0 0 0 6.5465379,-6.0073906 L 7.4189229,-7.1998847 7.4576174,-7.572759 7.11992,-7.4109456 v -0.010553 L 6.2862294,-6.1938278 A 9.0052651,9.0052651 0 0 0 6.025921,-6.3591588 l 0.7879607,-1.2522947 v -0.00352 L 6.8279527,-7.98433 6.5008083,-7.8014106 v -0.010553 L 5.7515418,-6.5244898 A 9.0052651,9.0052651 0 0 0 5.484198,-6.6792678 l 0.7000187,-1.3015423 v -0.00352 l -0.014071,-0.3693566 -0.3130736,0.2075432 v -0.010553 l -0.6578065,1.336719 A 9.0052651,9.0052651 0 0 0 4.9178513,-6.953647 l 0.6085589,-1.3507898 -0.038695,-0.3693565 -0.2990029,0.2251316 v -0.00704 L 4.6294014,-7.0767659 A 9.0052651,9.0052651 0 0 0 4.3374338,-7.1893317 L 4.8474976,-8.5788159 4.7841796,-8.9481725 4.502765,-8.6984171 4.499245,-8.7089701 4.034911,-7.294862 a 9.0052651,9.0052651 0 0 0 -0.299003,-0.09146 l 0.4150865,-1.4316964 -0.087942,-0.3517682 -0.2638261,0.2673438 -0.00352,-0.010553 -0.3623212,1.4422495 A 9.0052651,9.0052651 0 0 0 3.130869,-7.5410998 L 3.4439426,-8.986867 3.3278592,-9.3421529 3.0851391,-9.0572207 3.0816214,-9.0677737 2.8177953,-7.6009004 A 9.0052651,9.0052651 0 0 0 2.511757,-7.6536657 l 0.2110609,-1.4633555 v -0.00352 L 2.5821106,-9.461754 2.3604967,-9.1627511 2.3534613,-9.1803395 2.191648,-7.6923602 a 9.0052651,9.0052651 0 0 0 -0.3060383,-0.028141 l 0.1090481,-1.4739086 v -0.00352 L 1.8328444,-9.5321077 1.6323366,-9.2155163 1.6217835,-9.2331047 1.5655006,-7.73809 a 9.0052651,9.0052651 0 0 0 -0.309556,-0.00704 l 0.00352,-1.4879793 z m 0.154778,2.1598565 A 8.6450548,8.6450548 0 0 1 9.8777824,1.2601397 8.6450548,8.6450548 0 0 1 1.2313209,9.9066013 8.6450548,8.6450548 0 0 1 -7.4151407,1.2601397 8.6450548,8.6450548 0 0 1 1.2313209,-7.3863219 Z m 0,1.4422495 a 7.2042121,7.2042121 0 0 0 -7.2042121,7.2042121 7.2042121,7.2042121 0 0 0 7.2042121,7.2042121 7.2042121,7.2042121 0 0 0 7.204212,-7.2042121 7.2042121,7.2042121 0 0 0 -7.204212,-7.2042121 z m 0,0.3588036 A 6.8440015,6.8440015 0 0 1 8.0767294,1.2601397 6.8440015,6.8440015 0 0 1 1.2313209,8.1055482 6.8440015,6.8440015 0 0 1 -5.6140877,1.2601397 6.8440015,6.8440015 0 0 1 1.2313209,-5.5852688 Z"
         transform="matrix(0.55523074,0,0,0.55523074,7.3163328,7.3003317)" />
      <path
         sodipodi:type="star"
         style="display:none;fill:#262626;fill-opacity:1;fill-rule:evenodd;stroke-width:0.5;paint-order:stroke markers fill"
         id="path6222"
         inkscape:flatsided="true"
         sodipodi:sides="10"
         sodipodi:cx="-0.92096597"
         sodipodi:cy="0.10537757"
         sodipodi:r1="3.2004135"
         sodipodi:r2="3.0437741"
         sodipodi:arg1="-0.5399366"
         sodipodi:arg2="-0.22577733"
         inkscape:rounded="10"
         inkscape:randomized="0"
         d="M 1.8241608,-1.5398961 C 11.992512,15.42592 4.0128438,-19.314572 2.2669558,0.38786818 0.52106783,20.090308 14.48533,-12.705671 1.4920731,2.2077307 -11.501184,17.121132 19.073135,-1.2033849 -0.20450849,3.2245658 -19.482152,7.6525165 16.023873,10.798804 -2.1747525,3.049977 -20.373378,-4.6988501 6.5022581,18.716468 -3.6660927,1.7506513 -13.834443,-15.215165 -5.8547758,19.525327 -4.1088878,-0.17711304 -2.3629998,-19.879553 -16.327262,12.916426 -3.3340051,-1.9969756 9.6592518,-16.910377 -20.915067,1.4141401 -1.6374234,-3.0138106 17.64022,-7.4417613 -17.865805,-10.588049 0.33282058,-2.8392218 18.531446,4.9096052 -8.34419,-18.505712 1.8241608,-1.5398961 Z"
         transform="matrix(0.37481117,0,0,0.37211973,8.3451883,8.0607869)" />
      <path
         sodipodi:type="star"
         style="display:none;fill:url(#linearGradient6364);fill-opacity:1;fill-rule:evenodd;stroke-width:0.5;paint-order:stroke markers fill"
         id="path6226"
         inkscape:flatsided="true"
         sodipodi:sides="10"
         sodipodi:cx="-0.92096597"
         sodipodi:cy="0.10537757"
         sodipodi:r1="3.2004135"
         sodipodi:r2="3.0437741"
         sodipodi:arg1="-0.5399366"
         sodipodi:arg2="-0.22577733"
         inkscape:rounded="10"
         inkscape:randomized="0"
         d="M 1.8241608,-1.5398961 C 11.992512,15.42592 4.0128438,-19.314572 2.2669558,0.38786818 0.52106783,20.090308 14.48533,-12.705671 1.4920731,2.2077307 -11.501184,17.121132 19.073135,-1.2033849 -0.20450849,3.2245658 -19.482152,7.6525165 16.023873,10.798804 -2.1747525,3.049977 -20.373378,-4.6988501 6.5022581,18.716468 -3.6660927,1.7506513 -13.834443,-15.215165 -5.8547758,19.525327 -4.1088878,-0.17711304 -2.3629998,-19.879553 -16.327262,12.916426 -3.3340051,-1.9969756 9.6592518,-16.910377 -20.915067,1.4141401 -1.6374234,-3.0138106 17.64022,-7.4417613 -17.865805,-10.588049 0.33282058,-2.8392218 18.531446,4.9096052 -8.34419,-18.505712 1.8241608,-1.5398961 Z"
         transform="matrix(0.37481117,0,0,0.37211973,8.3451883,7.8607869)" />
    </g>
  </g>
</svg>
